<svg width="100" height="100" viewBox="0 0 100 100" fill="none" xmlns="http://www.w3.org/2000/svg">
<rect width="100" height="100" rx="20" fill="#2C9840"/>
<path d="M50 25C36.1929 25 25 36.1929 25 50C25 63.8071 36.1929 75 50 75C63.8071 75 75 63.8071 75 50C75 36.1929 63.8071 25 50 25ZM50 68.75C40.034 68.75 31.25 60.0781 31.25 50C31.25 39.9219 40.034 31.25 50 31.25C59.966 31.25 68.75 39.9219 68.75 50C68.75 60.0781 59.966 68.75 50 68.75Z" fill="white"/>
<path d="M50 40.625C44.9695 40.625 40.625 44.9695 40.625 50C40.625 55.0305 44.9695 59.375 50 59.375C55.0305 59.375 59.375 55.0305 59.375 50C59.375 44.9695 55.0305 40.625 50 40.625Z" fill="white"/>
</svg>
